<?xml version="1.0" encoding="utf-8"?>
<!-- Generator: Adobe Illustrator 24.3.0, SVG Export Plug-In . SVG Version: 6.00 Build 0)  -->
<svg version="1.1" id="Layer_1" xmlns:sketch="http://www.bohemiancoding.com/sketch/ns"
	 xmlns="http://www.w3.org/2000/svg" xmlns:xlink="http://www.w3.org/1999/xlink" x="0px" y="0px" viewBox="0 0 897 452"
	 style="enable-background:new 0 0 897 452;" xml:space="preserve">
<style type="text/css">
	.st0{fill-rule:evenodd;clip-rule:evenodd;fill:#FDFDFD;stroke:#7E89A3;stroke-width:2;}
	.st1{fill-rule:evenodd;clip-rule:evenodd;fill:#FFFFFF;stroke:#7E89A3;}
	.st2{fill:none;stroke:#7E89A3;}
	.st3{fill-rule:evenodd;clip-rule:evenodd;fill:#FEFEFE;stroke:#8492A5;stroke-width:2;}
	.st4{fill:none;stroke:#8492A5;stroke-width:2;}
	.st5{fill-rule:evenodd;clip-rule:evenodd;fill:#FDFDFD;stroke:#8492A5;stroke-width:2;}
	.st6{fill:none;stroke:#8492A5;stroke-linecap:square;}
	.st7{fill-rule:evenodd;clip-rule:evenodd;fill:#FFFFFF;stroke:#8492A5;}
	.st8{fill:#C8CD32;}
	.st9{fill:#D1D1D1;}
	.st10{fill:#EDEDED;}
	.st11{enable-background:new    ;}
	.st12{fill:#FFFFFF;}
	.st13{fill:#74D28F;}
	.st14{fill:#EC174F;}
	.st15{fill:#C9CD33;}
	.st16{fill:#3F1847;}
</style>
<desc>Created with Sketch.</desc>
<g id="IPAD" transform="translate(681.000000, 55.000000)" sketch:type="MSLayerGroup">
	<path id="bezel" sketch:type="MSShapeGroup" class="st0" d="M203,317H12.1c-6.6,0-12-5.4-12-12V12.1c0-6.6,5.4-12,12-12H203
		c6.6,0,12,5.4,12,12V305C215,311.6,209.6,317,203,317z"/>
	<path id="bezel-2" sketch:type="MSShapeGroup" class="st0" d="M203,317H12.1c-6.6,0-12-5.4-12-12V12.1c0-6.6,5.4-12,12-12H203
		c6.6,0,12,5.4,12,12V305C215,311.6,209.6,317,203,317z"/>
	<rect id="screen" x="17" y="32" sketch:type="MSShapeGroup" class="st1" width="182" height="252.9">
	</rect>
	<circle id="lock" sketch:type="MSShapeGroup" class="st2" cx="108" cy="300" r="8">
	</circle>
	<circle id="camera" sketch:type="MSShapeGroup" class="st2" cx="107" cy="17" r="3">
	</circle>
</g>
<g id="Laptop" transform="translate(1.000000, 1.000000)" sketch:type="MSLayerGroup">
	<path id="bezel_1_" sketch:type="MSShapeGroup" class="st3" d="M594,0H98C84.5,0,73,11.1,73,24.8V351h546V24.8
		C619,11.1,607.5,0,594,0z"/>
	<circle id="webcam" sketch:type="MSShapeGroup" class="st4" cx="347" cy="19" r="4">
	</circle>
	<g id="bottom" transform="translate(0.000000, 351.000000)" sketch:type="MSShapeGroup">
		<path id="Shape" class="st5" d="M640.8,31H51.3C20.6,31,0,20.5,0,16V2.4C0,1.1,1.3,0,3,0h686.1c1.7,0,3,1.1,3,2.4v14.1
			C692.1,20.1,676.1,31,640.8,31z"/>
		<path id="Line" class="st6" d="M0.5,14.5h689.7"/>
	</g>
	<rect id="screen_1_" x="95" y="39" sketch:type="MSShapeGroup" class="st7" width="501.1" height="292">
	</rect>
	<path id="touchpad" sketch:type="MSShapeGroup" class="st7" d="M421,352v3.1c0,2.2-4.3,2.9-7.6,2.9H278.8c-3.5,0-7.8-0.7-7.8-2.9
		V352"/>
</g>
<g id="iphone" transform="translate(576.000000, 177.000000)" sketch:type="MSLayerGroup">
	<path id="bezel_2_" sketch:type="MSShapeGroup" class="st0" d="M130,258c0,8.8-7.2,16-16.1,16H16.1C7.2,274,0,266.8,0,258V16.1
		c0-8.8,7.2-16,16.1-16H114c8.9,0,16.1,7.2,16.1,16V258H130z"/>
	<rect id="screen_2_" x="9" y="36" sketch:type="MSShapeGroup" class="st1" width="111.9" height="199.1">
	</rect>
	<path id="speaker" sketch:type="MSShapeGroup" class="st2" d="M77,25.7c0,0.6-0.4,1.1-1,1.1H55.9c-0.5,0-1-0.5-1-1.1v-2.6
		c0-0.6,0.4-1.1,1-1.1H76c0.5,0,1,0.5,1,1.1V25.7L77,25.7z"/>
	<circle id="camera_1_" sketch:type="MSShapeGroup" class="st2" cx="66" cy="12" r="3">
	</circle>
	<ellipse id="lock_1_" sketch:type="MSShapeGroup" class="st2" cx="65" cy="254" rx="10" ry="10">
	</ellipse>
</g>
<circle class="st8" cx="641" cy="277.5" r="24.7"/>
<path class="st9" d="M672.2,329.2h-62.4c-2.9,0-5.3-2.4-5.3-5.3l0,0c0-2.9,2.4-5.3,5.3-5.3h62.4c2.9,0,5.3,2.4,5.3,5.3l0,0
	C677.5,326.9,675.1,329.2,672.2,329.2z"/>
<path class="st9" d="M430.6,106.2h-62.4c-2.9,0-5.3-2.4-5.3-5.3l0,0c0-2.9,2.4-5.3,5.3-5.3h62.4c2.9,0,5.3,2.4,5.3,5.3l0,0
	C435.9,103.9,433.5,106.2,430.6,106.2z"/>
<path class="st10" d="M662.5,345.9h-42.8c-2.9,0-5.3-2.4-5.3-5.3l0,0c0-2.9,2.4-5.3,5.3-5.3h42.8c2.9,0,5.3,2.4,5.3,5.3l0,0
	C667.7,343.6,665.4,345.9,662.5,345.9z"/>
<path class="st10" d="M430.6,121.8h-31.7c-2.9,0-5.3-2.4-5.3-5.3l0,0c0-2.9,2.4-5.3,5.3-5.3h31.7c2.9,0,5.3,2.4,5.3,5.3l0,0
	C435.9,119.4,433.5,121.8,430.6,121.8z"/>
<path class="st10" d="M662.5,362.5h-42.8c-2.9,0-5.3-2.4-5.3-5.3l0,0c0-2.9,2.4-5.3,5.3-5.3h42.8c2.9,0,5.3,2.4,5.3,5.3l0,0
	C667.7,360.1,665.4,362.5,662.5,362.5z"/>
<g class="st11">
	<path class="st12" d="M646.8,277.1c-0.6,0.4-1.5,1-2.9,1.9l-3.3,2.2c-0.1,0.1-1,0.6-2.5,1.5c-1,0.6-2,1.1-2.9,1.5
		c-0.2,0.1-0.5,0.2-1,0.2c-0.5,0-0.9,0-1.2-0.1c-0.2,0-0.5-0.1-0.7-0.2l-0.6-0.5l-0.5-0.6c-0.3-0.4-0.4-1.4-0.4-1.9
		c0-0.8,0.6-1.4,0.9-1.6c0.5-0.5,0.9-0.8,2.1-0.8l1.1-0.1c0.7-0.2,1.8-0.5,2.5-0.8c0,0,0.5-0.3,1.2-0.7c0.5-0.3,0.9-0.5,1.4-0.9
		l1.3-0.8c1.3-0.9,1.7-1.2,2.4-1.7l0.6-0.5c0.2-0.1,0.8-0.7,1.8-1.4l0.5-0.4c0.3,0,0.6,0,0.9,0c0.2,0,0.4,0,0.6,0l0.8,0.4
		c0.6,0.5,0.9,1.1,0.9,1.8c0,0.5-0.2,1.2-0.6,1.6C648.6,275.8,647.7,276.5,646.8,277.1z"/>
</g>
<circle class="st13" cx="465.5" cy="108.7" r="15.5"/>
<g class="st11">
	<path class="st12" d="M472.7,108.7c-0.1,0.3-0.5,0.8-0.9,1.5c-0.3,0.3-1.1,1-1.6,1.3c0,0.1-0.3,0.2-0.7,0.3
		c-0.4,0.1-0.6,0.3-0.7,0.3c-0.5,0.2-0.9,0.3-1.2,0.4c-0.6,0.1-1.9,0.4-2.8,0.4c-0.8,0-1.2,0-2-0.2c-0.8-0.2-1.2-0.3-1.9-0.8
		c-0.2-0.1-0.3-0.2-0.4-0.3c-0.3-0.3-0.5-0.5-0.7-0.7c-0.4-0.6-0.6-1.2-0.6-1.8c0-0.3,0.1-0.7,0.2-1c0.4-0.9,0.8-1.4,1.6-2.1
		c0.9-0.7,1.9-1,3.2-1c0.9,0,1.6,0.3,2,1l0.4-0.3l1.1-0.6l0.4-0.2c0.3-0.1,1.2-0.2,1.5-0.2c0.8,0,1.4,0.2,1.9,0.5
		c0.5,0.5,1,1.4,1.1,2C472.9,107.9,472.8,108.3,472.7,108.7z M464.2,107.8c-0.1-0.1-0.5-0.1-0.6-0.1c-0.4,0.1-0.6,0.2-0.9,0.4
		c-0.4,0.4-0.5,0.7-0.3,1c0.1,0.4,0.7,0.5,1.2,0.5c0.1,0,0.2-0.1,0.3-0.1c0.2-0.1,0.3-0.3,0.5-0.5c0.2-0.2,0.2-0.6,0.2-0.8
		C464.5,108.1,464.4,108,464.2,107.8z M469.2,107.6c-0.3,0-0.6,0.2-0.8,0.2l-0.7,0.5c-0.2,0.1-0.5,0.5-0.8,0.9
		c-0.1,0.1-0.2,0.3-0.4,0.6l1.4-0.3c1-0.2,1.8-0.8,1.8-1.3C469.8,107.8,469.6,107.6,469.2,107.6z"/>
</g>
<path class="st9" d="M430.6,157.8h-62.4c-2.9,0-5.3-2.4-5.3-5.3l0,0c0-2.9,2.4-5.3,5.3-5.3h62.4c2.9,0,5.3,2.4,5.3,5.3l0,0
	C435.9,155.4,433.5,157.8,430.6,157.8z"/>
<path class="st10" d="M430.6,173.3h-31.7c-2.9,0-5.3-2.4-5.3-5.3l0,0c0-2.9,2.4-5.3,5.3-5.3h31.7c2.9,0,5.3,2.4,5.3,5.3l0,0
	C435.9,170.9,433.5,173.3,430.6,173.3z"/>
<circle class="st14" cx="465.5" cy="160.2" r="15.5"/>
<g class="st11">
	<path class="st12" d="M463.3,163.5l-0.8,0.5c-1.1,0.8-1.6,0.7-2.1,0.8c-0.4,0-0.6-0.1-1-0.5c-0.1-0.1-0.2-0.3-0.4-0.5
		c0-0.2-0.1-0.3-0.1-0.5c-0.1-0.2,0.3-1.7,0.8-1.9c0.3-0.2,0.8-0.3,1.4-0.5c0.7-0.1,0.8-0.3,1.2-0.5l0.8-0.5l0.8-0.5
		c0.5-0.3,0.9-0.6,1.2-0.8c0.5-0.3,0.9-0.6,1.2-0.9c0,0,0.2-0.2,0.6-0.5c0.2-0.1,0.4-0.3,0.7-0.5c0.3-0.3,0.8-0.5,1.4-0.5
		c0.1,0,0.2,0,0.4,0c0.3,0,0.6,0.2,0.9,0.5c0.3,0.5,0.4,0.5,0.5,1c0.1,0.4,0.3,1,0.3,1.4c0,0.2-0.1,0.6-0.1,0.8
		c0,0.3-0.2,0.8-0.2,0.9c-0.1,0.5-0.2,0.7-0.2,0.7c-0.1,0.3-0.3,0.6-0.5,1c-0.4,0.8-0.7,1.1-1.1,1.5c-0.3,0.3-0.5,0.4-0.7,0.5
		c-0.4,0.2-0.7,0.3-1,0.3c-0.6,0-0.9-0.4-1.1-0.7c-0.2-0.2-0.3-0.5-0.3-0.8c0.1-0.5,0.2-0.8,0.4-1c0.2-0.1,0.3-0.2,0.5-0.4l0.3-0.3
		c0.5-0.5,0.9-0.8,1-1.6c0-0.1,0-0.3,0-0.5c-0.4,0.3-1,0.6-1.3,0.9c-0.3,0.2-1,0.7-1.2,0.8l-0.8,0.6l-1.2,0.9
		C463.9,163.1,463.5,163.4,463.3,163.5z"/>
</g>
<path class="st9" d="M430.6,209.3h-62.4c-2.9,0-5.3-2.4-5.3-5.3l0,0c0-2.9,2.4-5.3,5.3-5.3h62.4c2.9,0,5.3,2.4,5.3,5.3l0,0
	C435.9,206.9,433.5,209.3,430.6,209.3z"/>
<path class="st10" d="M430.6,224.8h-31.7c-2.9,0-5.3-2.4-5.3-5.3l0,0c0-2.9,2.4-5.3,5.3-5.3h31.7c2.9,0,5.3,2.4,5.3,5.3l0,0
	C435.9,222.4,433.5,224.8,430.6,224.8z"/>
<circle class="st15" cx="465.5" cy="211.8" r="15.5"/>
<g class="st11">
	<path class="st12" d="M469.1,211.5c-0.4,0.3-1,0.7-1.8,1.2l-2.1,1.4c-0.1,0.1-0.6,0.4-1.6,0.9c-0.6,0.4-1.2,0.7-1.8,0.9
		c-0.1,0.1-0.3,0.1-0.6,0.1c-0.3,0-0.6,0-0.7-0.1c-0.1,0-0.3-0.1-0.4-0.1l-0.4-0.3l-0.3-0.4c-0.2-0.3-0.2-0.9-0.2-1.2
		c0-0.5,0.4-0.9,0.5-1c0.3-0.3,0.5-0.5,1.3-0.5l0.7-0.1c0.5-0.1,1.1-0.3,1.6-0.5c0,0,0.3-0.2,0.8-0.5c0.3-0.2,0.6-0.3,0.8-0.5
		l0.8-0.5c0.8-0.5,1-0.7,1.5-1.1l0.4-0.3c0.1-0.1,0.5-0.4,1.2-0.9l0.3-0.2c0.2,0,0.4,0,0.5,0s0.3,0,0.4,0l0.5,0.2
		c0.4,0.3,0.5,0.7,0.5,1.1c0,0.3-0.1,0.7-0.4,1C470.3,210.7,469.7,211.1,469.1,211.5z"/>
</g>
<path class="st9" d="M430.6,260.8h-62.4c-2.9,0-5.3-2.4-5.3-5.3l0,0c0-2.9,2.4-5.3,5.3-5.3h62.4c2.9,0,5.3,2.4,5.3,5.3l0,0
	C435.9,258.4,433.5,260.8,430.6,260.8z"/>
<path class="st10" d="M430.6,276.3h-31.7c-2.9,0-5.3-2.4-5.3-5.3l0,0c0-2.9,2.4-5.3,5.3-5.3h31.7c2.9,0,5.3,2.4,5.3,5.3l0,0
	C435.9,273.9,433.5,276.3,430.6,276.3z"/>
<circle class="st16" cx="465.5" cy="263.3" r="15.5"/>
<g class="st11">
	<path class="st12" d="M463,262.6c-0.2-0.3-0.3-0.6-0.3-1c0.3-1.1,0.4-1.4,1-1.7c0-0.1,0.7-0.5,0.8-0.5c0.3-0.1,0.6-0.1,0.8-0.1
		c0.4,0,0.8,0.1,1.1,0.3c0,0,0.1,0.1,0.3,0.1l0.7,0.7c0.4-0.2,0.8-0.3,1.2-0.5c0.2-0.1,0.6-0.2,1-0.4c0.3-0.1,0.7-0.2,1.1-0.2
		c0.3,0,0.6,0.1,1,0.1c0.5,0.3,0.6,0.4,0.8,1.1c0.1,0.1,0.2,0.3,0.2,0.4c0,0.7,0,1-0.3,2.2c-0.2,0.5-0.4,0.8-0.4,0.9
		c-0.1,0.3-0.3,0.6-0.6,0.8l-0.4,0.5c-0.3,0.4-0.6,0.7-1,1c-0.3,0.3-0.7,0.6-1.2,0.9c-0.2,0.1-0.3,0.1-0.4,0.1
		c-0.4,0.1-0.7,0.2-0.9,0.2c-0.1,0-0.3,0-0.6-0.1l-0.4-0.3l-0.5-0.4c-0.1-0.3-0.2-0.5-0.2-0.7c0-0.2,0.1-0.6,0.2-0.8
		c0,0,0.2-0.1,0.5-0.4c0.8-0.3,1.1-0.5,1.7-1c0-0.1,0.2-0.3,0.5-0.5c0.1-0.1,0.2-0.2,0.4-0.4l-2.5,0.2l-1.1,1
		c-0.5,0.4-1.1,0.8-1.8,1.2c-0.6,0.4-1.1,0.7-1.7,1.1c-0.9,0.5-1.4,0.8-1.5,0.9c-0.7,0.4-1.3,0.7-1.8,0.9l-0.5,0.2h-0.4
		c-0.1,0-0.3,0-0.5-0.1l-0.3-0.1c-0.3-0.1-0.5-0.3-0.8-0.7c-0.1-0.1,0-0.2-0.2-1c0-0.1,0.1-0.3,0.2-0.6c0.1-0.3,0.3-0.4,0.3-0.4
		l0.5-0.5c0.4-0.2,0.7-0.3,0.8-0.3c0.1,0,0.3,0,0.5,0.1c0.5,0,1-0.2,1.6-0.6l1.6-1c0.1,0,0.7-0.4,0.8-0.5L463,262.6z"/>
</g>
<g>
	<path class="st9" d="M797.2,139.7h-62.4c-2.9,0-5.3-2.4-5.3-5.3l0,0c0-2.9,2.4-5.3,5.3-5.3h62.4c2.9,0,5.3,2.4,5.3,5.3l0,0
		C802.5,137.4,800.1,139.7,797.2,139.7z"/>
	<path class="st10" d="M797.2,155.3h-31.7c-2.9,0-5.3-2.4-5.3-5.3l0,0c0-2.9,2.4-5.3,5.3-5.3h31.7c2.9,0,5.3,2.4,5.3,5.3l0,0
		C802.5,152.9,800.1,155.3,797.2,155.3z"/>
	<circle class="st13" cx="832.1" cy="142.2" r="15.5"/>
	<g class="st11">
		<path class="st12" d="M839.3,142.2c-0.1,0.3-0.5,0.8-0.9,1.5c-0.3,0.3-1.1,1-1.6,1.3c0,0.1-0.3,0.2-0.6,0.3
			c-0.4,0.1-0.6,0.3-0.7,0.3c-0.5,0.2-0.9,0.3-1.2,0.4c-0.6,0.1-1.9,0.4-2.8,0.4c-0.8,0-1.2,0-2-0.2c-0.8-0.2-1.2-0.3-1.9-0.8
			c-0.2-0.1-0.3-0.2-0.4-0.3c-0.3-0.3-0.5-0.5-0.6-0.7c-0.4-0.6-0.7-1.2-0.7-1.8c0-0.3,0.1-0.7,0.2-1c0.4-0.9,0.8-1.4,1.6-2.1
			c0.9-0.7,1.9-1,3.2-1c0.9,0,1.6,0.3,2,1l0.4-0.3l1.1-0.6l0.4-0.2c0.3-0.1,1.2-0.2,1.5-0.2c0.8,0,1.4,0.2,1.9,0.5
			c0.5,0.5,1,1.4,1.1,2C839.5,141.4,839.4,141.8,839.3,142.2z M830.8,141.3c-0.1-0.1-0.5-0.1-0.6-0.1c-0.4,0.1-0.7,0.2-0.9,0.4
			c-0.4,0.4-0.5,0.7-0.3,1c0.1,0.4,0.7,0.5,1.2,0.5c0.1,0,0.2-0.1,0.3-0.1c0.2-0.1,0.3-0.3,0.5-0.5c0.2-0.2,0.2-0.6,0.2-0.8
			C831.1,141.6,831,141.5,830.8,141.3z M835.8,141.1c-0.3,0-0.6,0.2-0.8,0.2l-0.7,0.5c-0.2,0.1-0.5,0.5-0.8,0.9
			c-0.1,0.1-0.2,0.3-0.4,0.6l1.4-0.3c1-0.2,1.8-0.8,1.8-1.3C836.4,141.3,836.2,141.1,835.8,141.1z"/>
	</g>
	<path class="st9" d="M797.2,191.3h-62.4c-2.9,0-5.3-2.4-5.3-5.3l0,0c0-2.9,2.4-5.3,5.3-5.3h62.4c2.9,0,5.3,2.4,5.3,5.3l0,0
		C802.5,188.9,800.1,191.3,797.2,191.3z"/>
	<path class="st10" d="M797.2,206.8h-31.7c-2.9,0-5.3-2.4-5.3-5.3l0,0c0-2.9,2.4-5.3,5.3-5.3h31.7c2.9,0,5.3,2.4,5.3,5.3l0,0
		C802.5,204.4,800.1,206.8,797.2,206.8z"/>
	<circle class="st14" cx="832.1" cy="193.7" r="15.5"/>
	<g class="st11">
		<path class="st12" d="M829.9,197l-0.8,0.5c-1.1,0.8-1.6,0.7-2.1,0.8c-0.4,0-0.6-0.1-1-0.5c-0.1-0.1-0.2-0.3-0.4-0.5
			c0-0.2-0.1-0.3-0.1-0.5c-0.1-0.2,0.3-1.7,0.8-1.9c0.3-0.2,0.8-0.3,1.4-0.5c0.7-0.1,0.8-0.3,1.2-0.5l0.8-0.5l0.8-0.5
			c0.5-0.3,0.9-0.6,1.2-0.8c0.5-0.3,0.9-0.6,1.2-0.9c0,0,0.2-0.2,0.6-0.5c0.2-0.1,0.4-0.3,0.7-0.5c0.3-0.3,0.8-0.5,1.4-0.5
			c0.1,0,0.2,0,0.4,0c0.3,0,0.6,0.2,0.9,0.5c0.3,0.5,0.4,0.5,0.5,1c0.1,0.4,0.3,1,0.3,1.4c0,0.2-0.1,0.6-0.1,0.8
			c0,0.3-0.2,0.8-0.2,0.9c-0.1,0.5-0.2,0.7-0.2,0.7c-0.1,0.3-0.3,0.6-0.5,1c-0.4,0.8-0.7,1.1-1.1,1.5c-0.3,0.3-0.5,0.4-0.7,0.5
			c-0.4,0.2-0.7,0.3-1,0.3c-0.6,0-0.9-0.4-1.1-0.7c-0.2-0.2-0.3-0.5-0.3-0.8c0.1-0.5,0.2-0.8,0.4-1c0.2-0.1,0.3-0.2,0.5-0.4l0.3-0.3
			c0.5-0.5,0.9-0.8,1-1.6c0-0.1,0-0.3,0-0.5c-0.4,0.3-1,0.6-1.3,0.9c-0.3,0.2-1,0.7-1.2,0.8l-0.8,0.6l-1.2,0.9
			C830.5,196.6,830.1,196.9,829.9,197z"/>
	</g>
	<path class="st9" d="M797.2,242.8h-62.4c-2.9,0-5.3-2.4-5.3-5.3l0,0c0-2.9,2.4-5.3,5.3-5.3h62.4c2.9,0,5.3,2.4,5.3,5.3l0,0
		C802.5,240.4,800.1,242.8,797.2,242.8z"/>
	<path class="st10" d="M797.2,258.3h-31.7c-2.9,0-5.3-2.4-5.3-5.3l0,0c0-2.9,2.4-5.3,5.3-5.3h31.7c2.9,0,5.3,2.4,5.3,5.3l0,0
		C802.5,255.9,800.1,258.3,797.2,258.3z"/>
	<circle class="st15" cx="832.1" cy="245.3" r="15.5"/>
	<g class="st11">
		<path class="st12" d="M835.7,245c-0.4,0.3-1,0.7-1.8,1.2l-2.1,1.4c-0.1,0.1-0.6,0.4-1.6,0.9c-0.7,0.4-1.2,0.7-1.8,0.9
			c-0.1,0.1-0.3,0.1-0.6,0.1c-0.3,0-0.6,0-0.7-0.1c-0.1,0-0.3-0.1-0.4-0.1l-0.4-0.3l-0.3-0.4c-0.2-0.3-0.2-0.9-0.2-1.2
			c0-0.5,0.4-0.9,0.5-1c0.3-0.3,0.5-0.5,1.3-0.5l0.7-0.1c0.5-0.1,1.1-0.3,1.6-0.5c0,0,0.3-0.2,0.8-0.5c0.3-0.2,0.6-0.3,0.8-0.5
			l0.8-0.5c0.8-0.5,1-0.7,1.5-1.1l0.4-0.3c0.1-0.1,0.5-0.4,1.2-0.9l0.3-0.2c0.2,0,0.4,0,0.5,0c0.1,0,0.3,0,0.4,0l0.5,0.2
			c0.4,0.3,0.5,0.7,0.5,1.1c0,0.3-0.1,0.7-0.4,1C836.9,244.2,836.3,244.6,835.7,245z"/>
	</g>
	<path class="st9" d="M797.2,294.3h-62.4c-2.9,0-5.3-2.4-5.3-5.3l0,0c0-2.9,2.4-5.3,5.3-5.3h62.4c2.9,0,5.3,2.4,5.3,5.3l0,0
		C802.5,291.9,800.1,294.3,797.2,294.3z"/>
	<path class="st10" d="M797.2,309.8h-31.7c-2.9,0-5.3-2.4-5.3-5.3l0,0c0-2.9,2.4-5.3,5.3-5.3h31.7c2.9,0,5.3,2.4,5.3,5.3l0,0
		C802.5,307.4,800.1,309.8,797.2,309.8z"/>
	<circle class="st16" cx="832.1" cy="296.8" r="15.5"/>
	<g class="st11">
		<path class="st12" d="M829.6,296.1c-0.2-0.3-0.3-0.6-0.3-1c0.3-1.1,0.4-1.4,1-1.7c0-0.1,0.6-0.5,0.8-0.5c0.3-0.1,0.6-0.1,0.8-0.1
			c0.4,0,0.8,0.1,1.1,0.3c0,0,0.1,0.1,0.3,0.1l0.7,0.7c0.4-0.2,0.8-0.3,1.2-0.5c0.2-0.1,0.6-0.2,1-0.4c0.3-0.1,0.7-0.2,1.1-0.2
			c0.3,0,0.6,0.1,1,0.1c0.5,0.3,0.6,0.4,0.8,1.1c0.1,0.1,0.2,0.3,0.2,0.4c0,0.7,0,1-0.3,2.2c-0.2,0.5-0.4,0.8-0.4,0.9
			c-0.1,0.3-0.3,0.6-0.6,0.8l-0.4,0.5c-0.3,0.4-0.7,0.7-1,1c-0.3,0.3-0.7,0.6-1.2,0.9c-0.2,0.1-0.3,0.1-0.4,0.1
			c-0.4,0.1-0.7,0.2-0.9,0.2c-0.1,0-0.3,0-0.6-0.1l-0.4-0.3l-0.5-0.4c-0.1-0.3-0.2-0.5-0.2-0.7c0-0.2,0.1-0.6,0.2-0.8
			c0,0,0.2-0.1,0.5-0.4c0.8-0.3,1.1-0.5,1.7-1c0-0.1,0.2-0.3,0.5-0.5c0.1-0.1,0.2-0.2,0.4-0.4l-2.5,0.2l-1.1,1
			c-0.5,0.4-1.1,0.8-1.8,1.2c-0.6,0.4-1.1,0.7-1.7,1.1c-0.9,0.5-1.4,0.8-1.5,0.9c-0.7,0.4-1.3,0.7-1.8,0.9l-0.5,0.2h-0.4
			c-0.1,0-0.3,0-0.5-0.1l-0.3-0.1c-0.3-0.1-0.5-0.3-0.8-0.7c-0.1-0.1,0-0.2-0.2-1c0-0.1,0.1-0.3,0.2-0.6c0.1-0.3,0.3-0.4,0.3-0.4
			l0.5-0.5c0.4-0.2,0.7-0.3,0.8-0.3c0.1,0,0.3,0,0.5,0.1c0.5,0,1-0.2,1.6-0.6l1.6-1c0.1,0,0.7-0.4,0.8-0.5L829.6,296.1z"/>
	</g>
</g>
<path class="st10" d="M294.1,201.8h-93.7c-2.9,0-5.3-2.4-5.3-5.3v-93.6c0-2.9,2.4-5.3,5.3-5.3h93.7c2.9,0,5.3,2.4,5.3,5.3v93.7
	C299.3,199.4,297,201.8,294.1,201.8z"/>
<path class="st10" d="M294.1,234.8h-93.7c-2.9,0-5.3-2.4-5.3-5.3v-12.4c0-2.9,2.4-5.3,5.3-5.3h93.7c2.9,0,5.3,2.4,5.3,5.3v12.5
	C299.3,232.5,297,234.8,294.1,234.8z"/>
<path class="st10" d="M294.1,255.4h-93.7c-2.9,0-5.3-2.4-5.3-5.3l0,0c0-2.9,2.4-5.3,5.3-5.3h93.7c2.9,0,5.3,2.4,5.3,5.3l0,0
	C299.4,253,297,255.4,294.1,255.4z"/>
</svg>
